<mxfile host="app.diagrams.net" agent="Mozilla/5.0 (Windows NT 10.0; Win64; x64) AppleWebKit/537.36 (KHTML, like Gecko) Chrome/128.0.0.0 Safari/537.36 OPR/114.0.0.0 (Edition std-2)" version="26.0.7">
  <diagram name="Page-1" id="7dO8XpOOyNjO7ZzXpr-v">
    <mxGraphModel dx="1639" dy="888" grid="1" gridSize="10" guides="1" tooltips="1" connect="1" arrows="1" fold="1" page="1" pageScale="1" pageWidth="827" pageHeight="1169" math="0" shadow="0">
      <root>
        <mxCell id="0" />
        <mxCell id="1" parent="0" />
        <mxCell id="JX1OaKDzO4Xh__PVvuca-2" value="Projet" style="swimlane;whiteSpace=wrap;html=1;" vertex="1" parent="1">
          <mxGeometry x="40" y="40" width="200" height="200" as="geometry" />
        </mxCell>
        <mxCell id="JX1OaKDzO4Xh__PVvuca-6" value="nom" style="text;html=1;align=center;verticalAlign=middle;whiteSpace=wrap;rounded=0;" vertex="1" parent="JX1OaKDzO4Xh__PVvuca-2">
          <mxGeometry y="20" width="60" height="30" as="geometry" />
        </mxCell>
        <mxCell id="JX1OaKDzO4Xh__PVvuca-7" value="id_projet" style="text;html=1;align=center;verticalAlign=middle;whiteSpace=wrap;rounded=0;" vertex="1" parent="JX1OaKDzO4Xh__PVvuca-2">
          <mxGeometry y="50" width="60" height="30" as="geometry" />
        </mxCell>
        <mxCell id="JX1OaKDzO4Xh__PVvuca-8" value="date de début" style="text;html=1;align=center;verticalAlign=middle;whiteSpace=wrap;rounded=0;" vertex="1" parent="JX1OaKDzO4Xh__PVvuca-2">
          <mxGeometry y="85" width="60" height="30" as="geometry" />
        </mxCell>
        <mxCell id="JX1OaKDzO4Xh__PVvuca-9" value="date de fin" style="text;html=1;align=center;verticalAlign=middle;whiteSpace=wrap;rounded=0;" vertex="1" parent="JX1OaKDzO4Xh__PVvuca-2">
          <mxGeometry y="130" width="60" height="30" as="geometry" />
        </mxCell>
        <mxCell id="JX1OaKDzO4Xh__PVvuca-4" value="Employé" style="swimlane;whiteSpace=wrap;html=1;" vertex="1" parent="1">
          <mxGeometry x="530" y="40" width="200" height="200" as="geometry" />
        </mxCell>
        <mxCell id="JX1OaKDzO4Xh__PVvuca-11" value="numéro employé" style="text;html=1;align=center;verticalAlign=middle;whiteSpace=wrap;rounded=0;" vertex="1" parent="JX1OaKDzO4Xh__PVvuca-4">
          <mxGeometry x="10" y="30" width="60" height="30" as="geometry" />
        </mxCell>
        <mxCell id="JX1OaKDzO4Xh__PVvuca-12" value="nom" style="text;html=1;align=center;verticalAlign=middle;whiteSpace=wrap;rounded=0;" vertex="1" parent="JX1OaKDzO4Xh__PVvuca-4">
          <mxGeometry x="10" y="70" width="60" height="30" as="geometry" />
        </mxCell>
        <mxCell id="JX1OaKDzO4Xh__PVvuca-13" value="prénom" style="text;html=1;align=center;verticalAlign=middle;whiteSpace=wrap;rounded=0;" vertex="1" parent="JX1OaKDzO4Xh__PVvuca-4">
          <mxGeometry x="10" y="110" width="60" height="30" as="geometry" />
        </mxCell>
        <mxCell id="JX1OaKDzO4Xh__PVvuca-19" style="edgeStyle=orthogonalEdgeStyle;rounded=0;orthogonalLoop=1;jettySize=auto;html=1;exitX=0;exitY=0.5;exitDx=0;exitDy=0;entryX=1;entryY=0.5;entryDx=0;entryDy=0;endArrow=none;startFill=0;" edge="1" parent="1" source="JX1OaKDzO4Xh__PVvuca-17" target="JX1OaKDzO4Xh__PVvuca-2">
          <mxGeometry relative="1" as="geometry" />
        </mxCell>
        <mxCell id="JX1OaKDzO4Xh__PVvuca-23" value="1,N" style="edgeLabel;html=1;align=center;verticalAlign=middle;resizable=0;points=[];" vertex="1" connectable="0" parent="JX1OaKDzO4Xh__PVvuca-19">
          <mxGeometry x="0.1379" relative="1" as="geometry">
            <mxPoint as="offset" />
          </mxGeometry>
        </mxCell>
        <mxCell id="JX1OaKDzO4Xh__PVvuca-20" style="edgeStyle=orthogonalEdgeStyle;rounded=0;orthogonalLoop=1;jettySize=auto;html=1;exitX=1;exitY=0.5;exitDx=0;exitDy=0;entryX=0;entryY=0.5;entryDx=0;entryDy=0;endArrow=none;startFill=0;" edge="1" parent="1" source="JX1OaKDzO4Xh__PVvuca-17" target="JX1OaKDzO4Xh__PVvuca-4">
          <mxGeometry relative="1" as="geometry" />
        </mxCell>
        <mxCell id="JX1OaKDzO4Xh__PVvuca-26" value="1,N" style="edgeLabel;html=1;align=center;verticalAlign=middle;resizable=0;points=[];" vertex="1" connectable="0" parent="JX1OaKDzO4Xh__PVvuca-20">
          <mxGeometry x="-0.0914" relative="1" as="geometry">
            <mxPoint as="offset" />
          </mxGeometry>
        </mxCell>
        <mxCell id="JX1OaKDzO4Xh__PVvuca-17" value="Réaliser" style="swimlane;whiteSpace=wrap;html=1;rounded=1;" vertex="1" parent="1">
          <mxGeometry x="280" y="115" width="200" height="50" as="geometry" />
        </mxCell>
      </root>
    </mxGraphModel>
  </diagram>
</mxfile>
